<?xml version="1.0" encoding="UTF-8" standalone="no"?>
<svg
   width="1280"
   height="256"
   id="svg2"
   sodipodi:version="0.32"
   inkscape:version="1.2.1 (9c6d41e410, 2022-07-14)"
   version="1.0"
   sodipodi:docname="alert_icons.svg"
   inkscape:output_extension="org.inkscape.output.svg.inkscape"
   style="display:inline;enable-background:new"
   inkscape:export-filename="alert_icons.png"
   inkscape:export-xdpi="96.000008"
   inkscape:export-ydpi="96.000008"
   xmlns:inkscape="http://www.inkscape.org/namespaces/inkscape"
   xmlns:sodipodi="http://sodipodi.sourceforge.net/DTD/sodipodi-0.dtd"
   xmlns="http://www.w3.org/2000/svg"
   xmlns:svg="http://www.w3.org/2000/svg"
   xmlns:rdf="http://www.w3.org/1999/02/22-rdf-syntax-ns#"
   xmlns:cc="http://creativecommons.org/ns#"
   xmlns:dc="http://purl.org/dc/elements/1.1/">
  <metadata
     id="metadata5323">
    <rdf:RDF>
      <cc:Work
         rdf:about="">
        <dc:format>image/svg+xml</dc:format>
        <dc:type
           rdf:resource="http://purl.org/dc/dcmitype/StillImage" />
      </cc:Work>
    </rdf:RDF>
  </metadata>
  <sodipodi:namedview
     pagecolor="#363636"
     bordercolor="#666666"
     borderopacity="1"
     objecttolerance="10"
     gridtolerance="10"
     guidetolerance="10"
     inkscape:pageopacity="0"
     inkscape:pageshadow="2"
     inkscape:window-width="1024"
     inkscape:window-height="706"
     id="namedview5321"
     showgrid="true"
     inkscape:zoom="0.70710678"
     inkscape:cx="1006.2129"
     inkscape:cy="123.74369"
     inkscape:window-x="-8"
     inkscape:window-y="-8"
     inkscape:window-maximized="1"
     inkscape:current-layer="g888"
     showguides="true"
     inkscape:guide-bbox="true"
     inkscape:document-rotation="0"
     inkscape:snap-global="false"
     inkscape:showpageshadow="2"
     inkscape:pagecheckerboard="true"
     inkscape:deskcolor="#494949"
     shape-rendering="auto">
    <inkscape:grid
       type="xygrid"
       id="grid9048"
       spacingx="256"
       spacingy="256"
       empcolor="#818181"
       empopacity="0.25098039"
       visible="true"
       enabled="true"
       snapvisiblegridlinesonly="true" />
    <inkscape:grid
       type="xygrid"
       id="grid5904"
       spacingx="8"
       spacingy="8"
       color="#0effa8"
       opacity="0.1254902"
       dotted="true"
       empspacing="1"
       enabled="false" />
    <inkscape:grid
       type="xygrid"
       id="grid5914"
       spacingx="2"
       spacingy="2"
       enabled="false" />
  </sodipodi:namedview>
  <defs
     id="defs4" />
  <g
     inkscape:groupmode="layer"
     id="layer2"
     inkscape:label="ICONS"
     style="display:inline">
    <path
       style="color:#000000;font-style:normal;font-variant:normal;font-weight:normal;font-stretch:normal;font-size:medium;line-height:normal;font-family:sans-serif;font-variant-ligatures:normal;font-variant-position:normal;font-variant-caps:normal;font-variant-numeric:normal;font-variant-alternates:normal;font-feature-settings:normal;text-indent:0;text-align:start;text-decoration:none;text-decoration-line:none;text-decoration-style:solid;text-decoration-color:#000000;letter-spacing:normal;word-spacing:normal;text-transform:none;writing-mode:lr-tb;direction:ltr;text-orientation:mixed;dominant-baseline:auto;baseline-shift:baseline;text-anchor:start;white-space:normal;shape-padding:0;clip-rule:nonzero;display:inline;overflow:visible;visibility:visible;opacity:1;isolation:auto;mix-blend-mode:normal;color-interpolation:sRGB;color-interpolation-filters:linearRGB;solid-color:#000000;solid-opacity:1;vector-effect:none;fill:#ffffff;fill-opacity:1;fill-rule:nonzero;stroke:none;stroke-width:16.6870575;stroke-linecap:round;stroke-linejoin:round;stroke-miterlimit:4;stroke-dasharray:none;stroke-dashoffset:0;stroke-opacity:1;color-rendering:auto;image-rendering:auto;shape-rendering:auto;text-rendering:auto;enable-background:new"
       d="m 127.63711,28.7478 c -5.87683,0.194787 -11.21722,3.472426 -14.05563,8.62676 L 23.520017,200.96344 c -6.122262,11.1248 1.916754,24.74614 14.606389,24.74895 H 218.24917 c 12.68963,-0.003 20.72865,-13.62415 14.6064,-24.74895 L 142.79409,37.37456 c -3.02886,-5.500109 -8.88551,-8.833516 -15.15698,-8.62676 z m 0.22154,6.670573 v 0 c 3.73286,-0.124026 7.22725,1.867665 9.02982,5.141498 l 90.14625,163.738859 c 3.60722,6.55818 -1.22393,14.73515 -8.70414,14.73655 H 38.0383 c -7.480045,-0.002 -12.311115,-8.17837 -8.703973,-14.73655 L 119.48372,40.559871 c 1.68886,-3.067777 4.87047,-5.025451 8.36825,-5.141498 z m 0.11013,3.341816 c -2.32339,0.07946 -4.43144,1.37183 -5.55381,3.410278 L 32.268804,205.90932 c -2.456157,4.46565 0.682153,9.78322 5.775511,9.78416 H 218.33641 c 5.09337,-8.3e-4 8.23175,-5.31851 5.77562,-9.78416 L 133.96261,42.170467 c -1.19843,-2.176546 -3.50581,-3.490246 -5.98737,-3.410278 v 0 z M 120,88 h 16 c 2.04554,5e-4 4.12156,2.199338 4,4 l -6,74 c -0.11183,1.65503 -0.59661,2.75123 -2.47659,2.75165 l -7.04624,-0.0312 C 122.59719,168.71998 122.11192,167.65503 122,166 l -6,-74 c -0.12175,-1.800662 1.95448,-3.9995 4,-4 z m 8,90 c 5.52669,-2e-5 10,4.4685 10,10 0,5.53149 -4.47331,10.00002 -10,10 -5.52677,2e-5 -10.00016,-4.46851 -10,-10 -1.6e-4,-5.5315 4.47323,-10.00002 10,-10 z"
       id="path6144"
       inkscape:connector-curvature="0"
       sodipodi:nodetypes="cccccccccccccccccccccccccccccccccccccccccc" />
    <path
       style="font-style:normal;font-variant:normal;font-weight:normal;font-stretch:normal;font-size:99.71450043px;line-height:0;font-family:Balloons;-inkscape-font-specification:Balloons;letter-spacing:0px;word-spacing:0px;display:inline;opacity:1;vector-effect:none;fill:#ffffff;fill-opacity:1;fill-rule:nonzero;stroke:none;stroke-width:17.32685852;stroke-linecap:round;stroke-linejoin:round;stroke-miterlimit:4;stroke-dasharray:none;stroke-dashoffset:0;stroke-opacity:1;marker:none;paint-order:normal;enable-background:new"
       d="m 383.95942,24 c -57.41261,0 -103.95477,46.547438 -103.95477,103.96662 0,57.41919 46.54216,103.96662 103.95477,103.96662 57.4126,0 103.95484,-46.54743 103.95484,-103.96662 C 487.91426,70.547438 441.37202,24 383.95942,24 Z m 0,6.601049 c 53.74795,0 97.35455,43.611594 97.35455,97.365571 0,53.75398 -43.6066,97.36556 -97.35455,97.36556 -53.74796,0 -97.35448,-43.61158 -97.35448,-97.36556 0,-53.753977 43.60652,-97.365571 97.35448,-97.365571 z m 0,3.300528 c -51.9643,0 -94.05432,42.094804 -94.05432,94.065043 0,51.97024 42.09002,94.06504 94.05432,94.06504 51.96438,0 94.05439,-42.09482 94.05439,-94.06504 0,-51.970239 -42.09001,-94.065043 -94.05439,-94.065043 z m 0.0908,32.982721 c 9.84154,-0.01154 19.616,3.163309 27.0651,9.337525 7.44926,6.174231 12.46912,15.484523 12.46912,26.990837 0,30.52988 -31.3515,32.18014 -31.3515,51.15818 v 6.62361 c -1.7e-4,1.82277 -1.47764,3.30035 -3.30015,3.30053 h -9.94566 c -1.82251,-1.8e-4 -3.29998,-1.47776 -3.30014,-3.30053 v -6.62361 c 0,-29.70475 31.37409,-29.70475 31.35149,-51.15818 0,-6.446126 -2.72956,-11.141868 -7.00639,-14.520388 -4.27665,-3.378519 -10.19753,-5.260217 -16.09787,-5.260217 -5.62494,0 -11.59672,2.555319 -16.01727,6.236842 -4.42104,3.681525 -7.05852,8.409614 -7.05852,11.893503 -1.7e-4,1.82275 -1.47765,3.30035 -3.30015,3.30053 h -9.90045 c -1.82251,-1.8e-4 -3.29998,-1.47778 -3.30015,-3.30053 0,-9.471145 5.13288,-18.135164 12.52374,-24.39618 7.39102,-6.26102 17.1535,-10.269545 27.1683,-10.281922 z m -0.19653,105.739362 c 5.46786,-1e-5 9.90045,4.43309 9.90045,9.90159 0,5.4685 -4.43259,9.9016 -9.90045,9.90159 -5.46785,1e-5 -9.90043,-4.43309 -9.90043,-9.90159 0,-5.4685 4.43258,-9.9016 9.90043,-9.90159 z"
       id="circle6315"
       inkscape:connector-curvature="0"
       sodipodi:nodetypes="ssssssssssssssscccccccccccsccccccccccccc" />
    <path
       sodipodi:nodetypes="ccccccccccccccccccccccccccccccccccccccccccccccccccccccccccccccccc"
       inkscape:connector-curvature="0"
       id="path6333"
       d="m 599.84744,24 c -1.80933,3.07e-4 -3.54432,0.719021 -4.82371,1.998072 l -57.09842,57.077994 c -1.27955,1.278828 -1.99844,3.013304 -1.99878,4.821983 v 80.215561 c 3.4e-4,1.80869 0.71921,3.54317 1.99878,4.822 l 57.09842,57.078 c 1.27939,1.27906 3.01438,1.99776 4.82371,1.99807 h 80.24427 c 1.80933,-3.1e-4 3.54432,-0.71901 4.82372,-1.99807 l 57.09841,-57.078 c 1.27955,-1.27883 1.99845,-3.01331 1.99878,-4.822 V 87.898049 c 5.1e-4,-1.806564 -0.71597,-3.539557 -1.99211,-4.818658 L 685.03536,26.001397 C 683.75491,24.719499 682.01719,23.999438 680.20496,24 Z m 0.7029,6.820055 h 78.9484 c 0.4535,-8.02e-4 0.88863,0.17894 1.20926,0.499517 l 55.98244,56.075635 c 0.31986,0.319706 0.4996,0.753326 0.49969,1.205495 v 78.810278 c -9e-5,0.45216 -0.17983,0.88577 -0.49969,1.20549 l -56.0957,56.07563 c -0.31982,0.31975 -0.75359,0.49943 -1.20592,0.49951 h -78.83848 c -0.45233,-8e-5 -0.88611,-0.17976 -1.20592,-0.49951 l -56.0957,-56.07563 c -0.31987,-0.31972 -0.49961,-0.75333 -0.4997,-1.20549 V 88.600702 c 9e-5,-0.452169 0.17983,-0.885789 0.4997,-1.205495 l 56.0957,-56.075635 c 0.31981,-0.319758 0.75359,-0.499433 1.20592,-0.499517 z m 0.70624,3.410027 -55.09631,55.076599 v 77.398309 l 55.09631,55.07659 h 77.42599 l 55.09631,-55.07659 V 89.306681 L 678.79251,34.230082 Z m 0.28649,43.477851 c 0.92189,-0.01364 1.80993,0.34714 2.46182,0.999035 l 35.96469,36.511252 35.96468,-36.511252 c 1.33226,-1.331257 3.49144,-1.331257 4.8237,0 l 8.52812,8.525069 c 1.33158,1.331718 1.33158,3.490265 0,4.821983 l -36.52432,35.95182 36.52432,35.95182 c 1.33158,1.33172 1.33158,3.49026 0,4.82197 l -8.52812,8.52507 c -1.33226,1.33127 -3.49144,1.33127 -4.8237,0 l -35.96468,-36.51126 -35.96469,36.51126 c -1.33226,1.33127 -3.49143,1.33127 -4.8237,0 l -8.52812,-8.52507 c -1.33158,-1.33171 -1.33158,-3.49025 0,-4.82197 L 627.1774,128.00584 590.65307,92.05402 c -1.33158,-1.331718 -1.33158,-3.490265 0,-4.821983 l 8.52812,-8.525069 c 0.62733,-0.627427 1.47461,-0.985395 2.36188,-0.999035 z"
       style="color:#000000;font-style:normal;font-variant:normal;font-weight:normal;font-stretch:normal;font-size:medium;line-height:normal;font-family:sans-serif;font-variant-ligatures:normal;font-variant-position:normal;font-variant-caps:normal;font-variant-numeric:normal;font-variant-alternates:normal;font-feature-settings:normal;text-indent:0;text-align:start;text-decoration:none;text-decoration-line:none;text-decoration-style:solid;text-decoration-color:#000000;letter-spacing:normal;word-spacing:normal;text-transform:none;writing-mode:lr-tb;direction:ltr;text-orientation:mixed;dominant-baseline:auto;baseline-shift:baseline;text-anchor:start;white-space:normal;shape-padding:0;clip-rule:nonzero;display:inline;overflow:visible;visibility:visible;isolation:auto;mix-blend-mode:normal;color-interpolation:sRGB;color-interpolation-filters:linearRGB;solid-color:#000000;solid-opacity:1;vector-effect:none;fill:#ffffff;fill-opacity:1;fill-rule:nonzero;stroke:none;stroke-width:6.82127094;stroke-linecap:round;stroke-linejoin:round;stroke-miterlimit:4;stroke-dasharray:none;stroke-dashoffset:0;stroke-opacity:1;marker:none;paint-order:normal;color-rendering:auto;image-rendering:auto;shape-rendering:auto;text-rendering:auto;enable-background:accumulate" />
    <path
       style="display:inline;opacity:1;vector-effect:none;fill:#ffffff;fill-opacity:1;fill-rule:nonzero;stroke:none;stroke-width:3.4464879;stroke-linecap:butt;stroke-linejoin:round;stroke-miterlimit:4;stroke-dasharray:none;stroke-dashoffset:0;stroke-opacity:1;marker:none;paint-order:normal;enable-background:new"
       d="m 824.87953,24.018442 c -19.10949,0 -34.49375,15.358505 -34.49375,34.436102 v 99.864706 c 0,17.91493 13.56662,32.54727 31.04439,34.26458 v -6.90406 C 807.68893,184.01188 797.2408,172.53207 797.2408,158.31925 V 58.454544 c 0,-15.383034 12.23007,-27.592598 27.63873,-27.592598 h 144.8736 c 15.40867,0 27.63877,12.209564 27.63877,27.592598 v 99.864706 c 0,15.38302 -12.2301,27.59259 -27.63877,27.59259 h -95.80091 l -5.63213,6.84349 h 101.43304 c 19.1095,0 34.49377,-15.3585 34.49377,-34.43608 V 58.454544 c 0,-19.077597 -15.38427,-34.436102 -34.49377,-34.436102 z m 0,10.287115 c -13.59981,0 -24.18938,10.571906 -24.18938,24.148987 v 99.864706 c 0,13.57706 10.58957,24.14898 24.18938,24.14898 v 3.44361 6.84349 3.44361 34.43612 c 7e-4,3.22387 4.06509,4.65054 6.10375,2.19934 l 0.91288,-1.09632 32.39946,-38.98275 h 0.0303 l 8.58971,-10.32409 c 0.0742,-0.0121 0.15004,-0.0207 0.22575,-0.0235 0.1673,-0.003 0.33391,0.0172 0.49516,0.0606 h 96.11747 c 13.59983,0 24.18941,-10.57191 24.18941,-24.14899 V 58.454579 c 0,-13.577083 -10.58958,-24.148987 -24.18941,-24.148987 z m 70.60096,20.809631 c 5.71509,-1.6e-5 10.3481,4.625269 10.3481,10.330833 0,5.705565 -4.63301,10.330849 -10.3481,10.33083 -5.71525,1.9e-5 -10.34827,-4.625265 -10.3481,-10.33083 -1.7e-4,-5.705564 4.63285,-10.330849 10.3481,-10.330833 z m 5.28521,32.610044 c 0.21939,4.99e-4 0.43816,0.02186 0.65348,0.06387 2.54598,0.323665 4.52032,2.47196 4.52057,5.10152 v 55.097748 h 8.62342 c 1.905,2e-4 3.4492,1.54185 3.44937,3.44361 v 3.44363 c -1.7e-4,1.90176 -1.54437,3.44343 -3.44937,3.44362 H 880.0695 c -1.905,-1.9e-4 -3.4492,-1.54186 -3.44936,-3.44362 v -3.44363 c 1.6e-4,-1.90176 1.54436,-3.44341 3.44936,-3.44361 h 8.62341 V 98.056045 h -8.62341 c -1.905,-1.9e-4 -3.4492,-1.541842 -3.44936,-3.443611 v -3.443609 c 1.6e-4,-1.901769 1.54436,-3.443422 3.44936,-3.443611 z"
       id="rect6452"
       inkscape:connector-curvature="0"
       sodipodi:nodetypes="sssccsssssssccssssssssccccccccccccssssscscccccccccccccccccccccc" />
    <g
       id="g888">
      <g
         transform="matrix(4.318758,0,0,4.4238041,-165.58547,-1034.3978)"
         id="g15769"
         style="display:inline">
        <path
           style="display:inline;fill:#df2323;fill-opacity:1;stroke-width:0.0441076;stroke-dasharray:none;enable-background:new"
           d="m 302.04006,284.05383 c -0.0313,-0.0347 -0.0748,-0.14667 -0.0966,-0.24877 -0.0217,-0.10211 -0.0685,-0.32512 -0.10396,-0.49558 -0.0354,-0.17047 -0.0798,-0.33412 -0.0985,-0.36368 -0.0187,-0.0296 -0.0524,-0.17425 -0.0748,-0.32158 -0.0224,-0.14732 -0.0561,-0.36585 -0.0749,-0.48562 -0.0187,-0.11977 -0.0559,-0.25697 -0.0825,-0.30488 -0.0266,-0.048 -0.063,-0.19489 -0.0808,-0.32664 -0.0178,-0.13176 -0.0602,-0.30564 -0.0944,-0.38642 -0.0341,-0.0808 -0.062,-0.22171 -0.062,-0.31319 0,-0.0914 -0.0201,-0.17844 -0.0446,-0.19325 -0.0246,-0.0148 -0.0446,-0.0931 -0.0446,-0.17395 0,-0.0809 -0.0217,-0.2022 -0.0483,-0.26962 -0.0265,-0.0674 -0.0751,-0.26961 -0.10797,-0.44927 -0.0328,-0.17966 -0.0796,-0.3772 -0.10396,-0.439 -0.0375,-0.0954 -0.0956,-0.12414 -0.38351,-0.19035 -0.18661,-0.0428 -0.35019,-0.0953 -0.36352,-0.1163 -0.0134,-0.0211 -0.0795,-0.0383 -0.14693,-0.0383 -0.0675,0 -0.16165,-0.0288 -0.20928,-0.0639 -0.0476,-0.0352 -0.13779,-0.0646 -0.20036,-0.0654 -0.0625,-7.4e-4 -0.13284,-0.0178 -0.15615,-0.0379 -0.0233,-0.0201 -0.11264,-0.0614 -0.19853,-0.0918 -0.0859,-0.0303 -0.21638,-0.0805 -0.28998,-0.11128 -0.0736,-0.0309 -0.19407,-0.0805 -0.26768,-0.11033 -0.0736,-0.0298 -0.19406,-0.079 -0.26768,-0.10925 -0.0736,-0.0302 -0.18402,-0.0763 -0.24536,-0.10243 -0.0613,-0.0261 -0.14165,-0.0649 -0.17846,-0.0862 -0.0369,-0.0213 -0.11711,-0.0589 -0.17845,-0.0835 -0.0613,-0.0246 -0.14164,-0.0563 -0.17845,-0.0707 -0.0369,-0.0144 -0.14722,-0.0745 -0.24537,-0.13361 -0.0982,-0.0591 -0.28181,-0.1601 -0.40813,-0.22431 l -0.22966,-0.11675 -0.43953,0.27938 c -0.24173,0.15364 -0.47194,0.29882 -0.51157,0.3226 -0.0397,0.0238 -0.18557,0.11674 -0.32431,0.20657 -0.13874,0.0898 -0.26563,0.16333 -0.28197,0.16333 -0.0163,0 -0.0711,0.0372 -0.12182,0.0825 -0.0507,0.0454 -0.16237,0.11917 -0.24824,0.16397 -0.0859,0.0448 -0.2766,0.16108 -0.42382,0.25842 -0.14724,0.0973 -0.2978,0.19035 -0.3346,0.20671 -0.0368,0.0163 -0.11851,0.0638 -0.18155,0.10548 -0.0631,0.0416 -0.22415,0.14434 -0.35799,0.22817 -0.13385,0.0838 -0.2753,0.17204 -0.31434,0.19599 -0.039,0.0239 -0.18447,0.11705 -0.32321,0.20688 -0.20428,0.13227 -0.29329,0.16333 -0.46799,0.16333 H 292.228 l -1.06602,-1.0548 c -0.58631,-0.58015 -1.55286,-1.53516 -2.14788,-2.12225 -0.80934,-0.79853 -1.08186,-1.0938 -1.08186,-1.17211 0,-0.0575 0.0702,-0.20015 0.15614,-0.31685 0.0859,-0.1167 0.15615,-0.22107 0.15615,-0.23193 0,-0.0109 0.0822,-0.1333 0.18261,-0.27211 0.10048,-0.13879 0.20112,-0.29156 0.22373,-0.33947 0.0226,-0.0479 0.0759,-0.13819 0.11852,-0.20063 0.0426,-0.0624 0.15269,-0.22452 0.24471,-0.36017 0.092,-0.13564 0.16729,-0.2586 0.16729,-0.27325 0,-0.0147 0.0702,-0.12209 0.15615,-0.23879 0.0859,-0.11671 0.15615,-0.22411 0.15615,-0.23868 0,-0.0146 0.0904,-0.15266 0.20075,-0.30686 0.11041,-0.1542 0.20077,-0.28903 0.20077,-0.29961 0,-0.0109 0.0931,-0.16154 0.20675,-0.33545 0.11373,-0.17391 0.22415,-0.32274 0.24538,-0.33073 0.0212,-0.008 0.0386,-0.0444 0.0386,-0.0808 0,-0.0365 0.0607,-0.14115 0.13489,-0.2326 l 0.1349,-0.16627 -0.0948,-0.17753 c -0.0521,-0.0976 -0.11283,-0.17754 -0.1349,-0.17754 -0.0221,0 -0.0401,-0.0288 -0.0401,-0.0641 0,-0.0352 -0.0432,-0.1381 -0.096,-0.22865 -0.0527,-0.0906 -0.1401,-0.25285 -0.19405,-0.36065 -0.0539,-0.10776 -0.19172,-0.38217 -0.30617,-0.60974 -0.11443,-0.22757 -0.20779,-0.44647 -0.20746,-0.48645 2.7e-4,-0.04 -0.0274,-0.12817 -0.0616,-0.19599 -0.0342,-0.0679 -0.10449,-0.21692 -0.15613,-0.33134 -0.0517,-0.11443 -0.094,-0.24557 -0.094,-0.29142 0,-0.0459 -0.0201,-0.0955 -0.0446,-0.11028 -0.0246,-0.0148 -0.0452,-0.0797 -0.046,-0.14413 -7.7e-4,-0.0645 -0.0309,-0.15524 -0.0669,-0.20174 -0.036,-0.0465 -0.0655,-0.12517 -0.0655,-0.17483 0,-0.0497 -0.0401,-0.19752 -0.0893,-0.3286 -0.049,-0.13107 -0.0893,-0.2435 -0.0893,-0.24981 0,-0.007 -0.0778,-0.0115 -0.17284,-0.0115 -0.095,0 -0.25091,-0.0269 -0.34633,-0.0598 -0.0955,-0.0328 -0.26357,-0.0733 -0.37367,-0.0897 -0.11009,-0.0165 -0.30055,-0.0565 -0.42324,-0.089 -0.12268,-0.0325 -0.34351,-0.0817 -0.49073,-0.10922 -0.14723,-0.0276 -0.4584,-0.0899 -0.69151,-0.13865 -0.2331,-0.0487 -0.48404,-0.10787 -0.55765,-0.1316 -0.0736,-0.0237 -0.24426,-0.0602 -0.37921,-0.0813 -0.13495,-0.021 -0.34576,-0.0575 -0.46843,-0.0811 -0.12269,-0.0236 -0.3629,-0.0743 -0.53379,-0.11255 -0.1709,-0.0383 -0.37667,-0.10946 -0.45728,-0.1581 l -0.14656,-0.0884 v -3.03648 c 0,-2.30363 0.0129,-3.04909 0.0535,-3.08874 0.0295,-0.0287 0.0857,-0.0523 0.12492,-0.0523 0.0392,0 0.0963,-0.0244 0.12679,-0.0541 0.0305,-0.0298 0.18005,-0.0774 0.33237,-0.10591 0.15232,-0.0285 0.42752,-0.0837 0.61155,-0.12285 0.18402,-0.039 0.42493,-0.0885 0.53535,-0.10994 0.11041,-0.0214 0.42159,-0.0905 0.69149,-0.15344 0.26991,-0.063 0.57104,-0.12466 0.66919,-0.13703 0.0982,-0.0124 0.19753,-0.0401 0.22084,-0.0616 0.0233,-0.0215 0.11096,-0.0392 0.19477,-0.0392 0.0838,0 0.24543,-0.0289 0.35913,-0.0643 0.11371,-0.0353 0.38169,-0.10396 0.59549,-0.15244 0.21381,-0.0485 0.44016,-0.0882 0.503,-0.0882 0.0833,0 0.12725,-0.0325 0.1622,-0.11976 0.0263,-0.0659 0.0478,-0.16878 0.0477,-0.22866 -1.5e-4,-0.0599 0.0279,-0.1523 0.0625,-0.20535 0.0345,-0.0531 0.0627,-0.15479 0.0627,-0.22608 0,-0.0713 0.0178,-0.14036 0.0396,-0.1535 0.0217,-0.0132 0.0519,-0.0882 0.067,-0.16668 0.0151,-0.0785 0.0675,-0.21589 0.11659,-0.3052 0.049,-0.0893 0.0892,-0.20048 0.0892,-0.24707 0,-0.0465 0.0201,-0.0968 0.0446,-0.11162 0.0246,-0.0148 0.0446,-0.064 0.0446,-0.10931 0,-0.0453 0.0731,-0.22546 0.16238,-0.4003 0.0893,-0.17484 0.17965,-0.36199 0.20075,-0.4159 0.0211,-0.0539 0.0631,-0.15188 0.0932,-0.21776 0.0301,-0.0659 0.10048,-0.18042 0.15615,-0.25454 0.0557,-0.0742 0.10124,-0.15374 0.10124,-0.17692 0,-0.0232 0.0387,-0.11933 0.086,-0.21366 0.0473,-0.0943 0.13763,-0.23901 0.20075,-0.32152 0.0632,-0.0825 0.11477,-0.16448 0.11477,-0.18216 0,-0.0177 -0.0379,-0.0439 -0.0844,-0.0583 -0.0464,-0.0144 -0.096,-0.0598 -0.11022,-0.10091 -0.0143,-0.0411 -0.0515,-0.11397 -0.0829,-0.16188 -0.0314,-0.048 -0.14239,-0.20822 -0.24667,-0.35623 -0.10428,-0.14803 -0.1896,-0.28337 -0.1896,-0.30076 0,-0.0174 -0.0466,-0.0923 -0.10374,-0.16642 -0.0571,-0.0742 -0.15109,-0.21806 -0.20898,-0.31987 -0.0579,-0.10178 -0.12163,-0.1851 -0.14165,-0.1851 -0.02,0 -0.0364,-0.0358 -0.0364,-0.0795 0,-0.0437 -0.0502,-0.12555 -0.11153,-0.1818 -0.0613,-0.0562 -0.11153,-0.11868 -0.11153,-0.13871 0,-0.02 -0.0702,-0.13399 -0.15615,-0.25327 -0.0859,-0.11929 -0.15614,-0.23298 -0.15614,-0.25267 0,-0.0197 -0.0352,-0.0738 -0.0784,-0.12022 -0.0431,-0.0464 -0.10069,-0.13342 -0.12786,-0.19331 -0.0272,-0.0599 -0.1202,-0.19931 -0.20664,-0.30982 -0.0865,-0.11052 -0.17081,-0.24282 -0.18745,-0.29399 -0.0166,-0.0512 -0.0489,-0.0931 -0.0719,-0.0931 -0.0228,0 -0.0417,-0.0222 -0.0417,-0.0493 0,-0.0271 -0.0702,-0.14472 -0.15615,-0.26142 -0.0859,-0.11669 -0.15614,-0.26141 -0.15614,-0.3216 0,-0.0848 0.24795,-0.35167 1.10417,-1.18826 0.60728,-0.59336 1.58421,-1.55343 2.17096,-2.13348 l 1.06679,-1.05464 h 0.19717 c 0.15929,0 0.23376,0.0292 0.3877,0.15243 0.10483,0.0838 0.20517,0.15244 0.22302,0.15244 0.0178,0 0.14297,0.0735 0.27804,0.16333 0.13508,0.0898 0.29908,0.19785 0.36446,0.24005 0.0654,0.0422 0.15402,0.0886 0.19696,0.10308 0.0429,0.0145 0.0781,0.0436 0.0781,0.0648 0,0.0212 0.0218,0.0385 0.0485,0.0385 0.0266,0 0.13207,0.0556 0.23423,0.12357 0.10221,0.068 0.30619,0.20027 0.45342,0.29399 0.14722,0.0937 0.28775,0.17838 0.31228,0.18812 0.0246,0.01 0.18514,0.10722 0.3569,0.21659 0.17177,0.10939 0.31899,0.21411 0.32717,0.23273 0.009,0.0186 0.0401,0.0338 0.071,0.0338 0.0309,0 0.28072,0.14615 0.55524,0.32479 0.28912,0.18816 0.5267,0.31446 0.56472,0.30022 0.0361,-0.0135 0.0657,-0.0421 0.0657,-0.0635 0,-0.0214 0.0276,-0.0389 0.0614,-0.0389 0.0338,0 0.0864,-0.0294 0.117,-0.0653 0.0306,-0.036 0.0932,-0.0653 0.13929,-0.0653 0.0461,0 0.0837,-0.0196 0.0837,-0.0436 0,-0.0239 0.0371,-0.0436 0.0823,-0.0436 0.0452,0 0.11762,-0.0381 0.16077,-0.0846 0.0432,-0.0465 0.13637,-0.097 0.20716,-0.11223 0.0708,-0.0152 0.14015,-0.0457 0.15415,-0.0677 0.014,-0.0221 0.0644,-0.0402 0.11204,-0.0402 0.0476,0 0.0865,-0.0196 0.0865,-0.0436 0,-0.0239 0.0311,-0.0435 0.0693,-0.0435 0.0381,0 0.14347,-0.0384 0.23421,-0.0854 0.0907,-0.047 0.23332,-0.11556 0.31684,-0.15245 0.0835,-0.0369 0.18388,-0.0677 0.22306,-0.0685 0.0392,-7.4e-4 0.11019,-0.0301 0.15782,-0.0653 0.0476,-0.0351 0.13176,-0.0639 0.18697,-0.0639 0.0552,0 0.11108,-0.017 0.12416,-0.0376 0.0131,-0.0207 0.11967,-0.0627 0.23685,-0.0935 0.11718,-0.0308 0.23213,-0.0726 0.25544,-0.0931 0.0233,-0.0204 0.0996,-0.0371 0.16952,-0.0371 0.0699,0 0.18796,-0.0308 0.26232,-0.0683 0.0744,-0.0375 0.19883,-0.062 0.27661,-0.0545 0.1334,0.013 0.1432,0.004 0.17251,-0.16041 0.0171,-0.0958 0.0723,-0.36667 0.12277,-0.60188 0.0505,-0.23522 0.11173,-0.46422 0.13623,-0.50889 0.0245,-0.0447 0.0445,-0.15974 0.0445,-0.25573 0,-0.096 0.0201,-0.18662 0.0446,-0.20143 0.0246,-0.0148 0.0446,-0.11524 0.0446,-0.22319 0,-0.10798 0.0204,-0.23363 0.0455,-0.27927 0.025,-0.0457 0.0861,-0.26483 0.13569,-0.4871 0.0496,-0.22228 0.10863,-0.49234 0.13116,-0.60013 0.0225,-0.10776 0.0618,-0.31953 0.0871,-0.47053 0.0253,-0.15099 0.0641,-0.30778 0.0859,-0.34843 0.0219,-0.0407 0.0545,-0.18168 0.0724,-0.31344 0.0179,-0.13175 0.0626,-0.29833 0.0992,-0.3702 0.0365,-0.0719 0.10951,-0.16452 0.16207,-0.20591 0.0884,-0.0697 0.32447,-0.0753 3.16865,-0.0762 l 3.0731,-9.7e-4 0.10689,0.11978 c 0.0588,0.0659 0.0981,0.1542 0.0873,0.19628 -0.0109,0.0421 0.01,0.18909 0.0464,0.32665 0.0363,0.13758 0.0855,0.34813 0.10919,0.4679 0.0237,0.11977 0.0612,0.31576 0.0833,0.43554 0.0221,0.11977 0.0793,0.37456 0.12716,0.56619 0.0479,0.19164 0.10798,0.43663 0.13362,0.54442 0.0257,0.10776 0.068,0.28937 0.0942,0.4035 0.0262,0.11412 0.0476,0.2575 0.0476,0.31863 0,0.0611 0.0204,0.14839 0.0455,0.19396 0.025,0.0456 0.0867,0.26477 0.1372,0.48712 0.0505,0.22234 0.10624,0.50611 0.12398,0.6306 0.0177,0.12448 0.0695,0.26657 0.11507,0.31575 0.0502,0.0542 0.13834,0.0894 0.2236,0.0894 0.0774,0 0.17967,0.0288 0.2273,0.0639 0.0476,0.0351 0.15067,0.0646 0.22896,0.0654 0.0783,7.4e-4 0.15477,0.021 0.16994,0.0449 0.0151,0.0239 0.0675,0.0436 0.11632,0.0436 0.0488,0 0.17185,0.0392 0.27342,0.0871 0.10156,0.0479 0.22297,0.0871 0.26979,0.0871 0.0468,0 0.13841,0.027 0.20353,0.06 0.0651,0.0331 0.1686,0.0785 0.22995,0.10112 0.0613,0.0226 0.23198,0.0958 0.3792,0.16253 0.14723,0.0668 0.31787,0.14066 0.37922,0.16419 0.0613,0.0235 0.17175,0.0726 0.24537,0.10912 0.0736,0.0364 0.30299,0.15233 0.50972,0.25746 0.20675,0.10515 0.40909,0.22048 0.44965,0.25631 0.0406,0.0359 0.0894,0.0651 0.10841,0.0651 0.019,0 0.11073,-0.0588 0.20367,-0.13066 0.093,-0.0719 0.18363,-0.13066 0.20151,-0.13066 0.0178,0 0.15913,-0.0882 0.31387,-0.19599 0.15473,-0.10776 0.29473,-0.19599 0.31111,-0.19599 0.0164,0 0.19918,-0.10776 0.40621,-0.23954 0.20703,-0.13175 0.38951,-0.23954 0.40548,-0.23954 0.016,0 0.0705,-0.0372 0.12115,-0.0825 0.0507,-0.0453 0.16237,-0.11918 0.24825,-0.16397 0.0859,-0.0448 0.2766,-0.16109 0.42382,-0.25843 0.14722,-0.0973 0.29779,-0.19035 0.33459,-0.20671 0.0369,-0.0163 0.11899,-0.0638 0.18264,-0.10548 0.0636,-0.0417 0.20418,-0.13454 0.31228,-0.20641 0.10809,-0.0719 0.20328,-0.14535 0.21146,-0.16332 0.009,-0.0179 0.0455,-0.0326 0.0828,-0.0326 0.0374,0 0.13104,-0.0493 0.20819,-0.10953 0.0772,-0.0602 0.1626,-0.12708 0.18987,-0.14852 0.0273,-0.0214 0.10754,-0.0429 0.17845,-0.0475 0.0709,-0.004 0.17452,-0.007 0.23034,-0.004 0.061,0.003 0.1173,0.0437 0.14111,0.10265 0.0217,0.0539 0.48893,0.52917 1.03807,1.05617 0.54914,0.527 1.48679,1.42711 2.08367,2.00025 0.95687,0.9188 1.08783,1.06094 1.10717,1.20163 0.0178,0.13009 -0.002,0.18697 -0.1057,0.30808 -0.0701,0.0817 -0.17276,0.21144 -0.22797,0.28832 -0.0552,0.0769 -0.10036,0.15046 -0.10036,0.16352 0,0.013 -0.0854,0.14661 -0.18961,0.29679 -0.10428,0.15018 -0.21482,0.31179 -0.24565,0.35912 -0.0309,0.0473 -0.0691,0.11546 -0.0849,0.1514 -0.0159,0.0359 -0.11615,0.18643 -0.22277,0.33445 -0.10667,0.14802 -0.19387,0.28168 -0.19387,0.29703 0,0.0153 -0.0652,0.11962 -0.14494,0.23173 -0.0797,0.11211 -0.16649,0.24304 -0.19285,0.29095 -0.0263,0.048 -0.0765,0.1361 -0.11159,0.19599 -0.035,0.0599 -0.10112,0.1518 -0.14699,0.20425 -0.0458,0.0524 -0.12612,0.17274 -0.17845,0.26731 -0.0523,0.0946 -0.17042,0.28232 -0.26243,0.41723 -0.092,0.13491 -0.16731,0.26212 -0.16731,0.28269 0,0.0206 -0.0447,0.0663 -0.0993,0.10178 -0.0876,0.0568 -0.0928,0.0767 -0.0436,0.16863 0.0306,0.0573 0.12411,0.22186 0.20779,0.36559 0.0837,0.14372 0.2155,0.38871 0.29291,0.54441 0.0774,0.15571 0.1591,0.3174 0.18151,0.35932 0.0224,0.0419 0.0578,0.11052 0.0788,0.15244 0.0209,0.0419 0.0734,0.15462 0.11648,0.25043 0.0432,0.0958 0.0962,0.20825 0.11811,0.24985 0.0219,0.0416 0.0397,0.0956 0.0397,0.11998 0,0.0244 0.0502,0.14593 0.11154,0.27006 0.0613,0.12414 0.11153,0.26008 0.11153,0.30209 0,0.042 0.0201,0.0885 0.0446,0.1033 0.0246,0.0148 0.0446,0.0822 0.0446,0.14968 0,0.0675 0.0301,0.14716 0.0669,0.17697 0.0368,0.0298 0.0669,0.0938 0.0669,0.14223 0,0.0484 0.0451,0.22213 0.10036,0.38606 0.0639,0.18983 0.12962,0.30751 0.18091,0.32412 0.0443,0.0144 0.0727,0.0489 0.0632,0.0768 -0.0129,0.0377 -0.41702,0.0469 -1.57506,0.0354 -0.85776,-0.009 -1.58037,-0.0333 -1.60812,-0.0554 -0.0277,-0.0221 -0.0631,-0.102 -0.0785,-0.17769 -0.0156,-0.0757 -0.12022,-0.3643 -0.23272,-0.64144 -0.11249,-0.27714 -0.36465,-0.80767 -0.56033,-1.17897 -0.1957,-0.37129 -0.50848,-0.90047 -0.69507,-1.17594 -0.1866,-0.27547 -0.43013,-0.61846 -0.54119,-0.76219 -0.11107,-0.14373 -0.31005,-0.38872 -0.44219,-0.54442 -0.13214,-0.1557 -0.49447,-0.53527 -0.80517,-0.84349 -0.3107,-0.30821 -0.76567,-0.72121 -1.01104,-0.91778 -0.24537,-0.19656 -0.64689,-0.49581 -0.89226,-0.665 -0.24537,-0.16919 -0.57662,-0.38479 -0.73611,-0.47912 -0.15949,-0.0943 -0.50078,-0.28132 -0.75842,-0.41553 -0.25764,-0.13421 -0.64911,-0.32126 -0.86995,-0.41567 -0.22083,-0.0944 -0.59224,-0.24125 -0.82534,-0.32631 -0.23309,-0.085 -0.66472,-0.22284 -0.95917,-0.30618 -0.29445,-0.0834 -0.73611,-0.19118 -0.98148,-0.23962 -0.24537,-0.0484 -0.57662,-0.10926 -0.73612,-0.13517 -0.15949,-0.0259 -0.46062,-0.0672 -0.66919,-0.0919 -0.20856,-0.0246 -0.71045,-0.0568 -1.11532,-0.0714 -0.44297,-0.016 -1.01148,-0.005 -1.42761,0.0269 -0.38032,0.0294 -0.97852,0.10058 -1.32933,0.1583 -0.35082,0.0576 -0.84268,0.15543 -1.09303,0.21723 -0.25033,0.0618 -0.70399,0.19125 -1.00811,0.28768 -0.30413,0.0965 -0.78595,0.27249 -1.07071,0.39123 -0.28477,0.11875 -0.78878,0.35478 -1.12003,0.52451 -0.33125,0.16973 -0.84318,0.46553 -1.13763,0.65735 -0.29444,0.19182 -0.62569,0.41592 -0.73611,0.49802 -0.11042,0.0821 -0.43619,0.3453 -0.72395,0.58489 -0.28774,0.23959 -0.70704,0.62516 -0.93175,0.85682 -0.22471,0.23164 -0.57779,0.62697 -0.78461,0.8785 -0.20682,0.25152 -0.54364,0.7023 -0.74848,1.00172 -0.20485,0.29944 -0.48834,0.75021 -0.62997,1.00174 -0.14164,0.25152 -0.36597,0.6925 -0.49851,0.97995 -0.13254,0.28745 -0.34071,0.80682 -0.4626,1.15417 -0.1219,0.34733 -0.28122,0.87651 -0.35406,1.17594 -0.0729,0.29942 -0.14394,0.59341 -0.15803,0.6533 -0.014,0.0599 -0.0441,0.22647 -0.0666,0.37021 -0.0226,0.14372 -0.0707,0.49651 -0.10678,0.78396 -0.0401,0.31877 -0.0658,0.9049 -0.0658,1.5026 0,0.58319 0.0261,1.19154 0.0644,1.50258 0.0353,0.28745 0.0962,0.69904 0.1353,0.91463 0.039,0.21559 0.12155,0.59777 0.18341,0.84929 0.0619,0.25152 0.20209,0.72507 0.31162,1.05233 0.10953,0.32727 0.30883,0.84332 0.44288,1.14679 0.13405,0.30347 0.37594,0.79027 0.53753,1.08179 0.1616,0.29151 0.46234,0.775 0.66833,1.07444 0.20598,0.29942 0.48437,0.67878 0.61863,0.843 0.13426,0.16422 0.4109,0.48531 0.61475,0.71354 0.20385,0.22822 0.59863,0.61869 0.87727,0.86771 0.27865,0.24902 0.67013,0.57702 0.86996,0.72888 0.19983,0.15187 0.55747,0.40609 0.79476,0.56494 0.23729,0.15886 0.6087,0.38893 0.82534,0.51128 0.21664,0.12235 0.57032,0.30911 0.78595,0.41504 0.21563,0.10591 0.63372,0.28956 0.92909,0.40808 0.29536,0.11854 0.72121,0.27302 0.94633,0.34331 0.22511,0.0702 0.60001,0.17634 0.83311,0.23569 0.23311,0.0594 0.57439,0.13853 0.75842,0.17594 0.18403,0.0374 0.53536,0.0978 0.78073,0.13401 0.24537,0.0363 0.76733,0.0887 1.15993,0.11651 0.41097,0.0291 0.98825,0.0385 1.36069,0.0221 0.35579,-0.0157 0.82757,-0.0488 1.0484,-0.0737 0.22084,-0.0249 0.63238,-0.0843 0.91456,-0.13181 0.28218,-0.0476 0.71381,-0.13457 0.95918,-0.19328 0.24537,-0.0587 0.72719,-0.19749 1.0707,-0.30841 0.34352,-0.11091 0.87554,-0.30818 1.18225,-0.43838 0.3067,-0.1302 0.77849,-0.35458 1.0484,-0.49864 0.2699,-0.14406 0.7718,-0.44484 1.11532,-0.6684 0.34352,-0.22355 0.79522,-0.53964 1.00378,-0.70241 0.20857,-0.16276 0.65705,-0.56126 0.99661,-0.88555 0.33956,-0.32431 0.77498,-0.77583 0.96756,-1.00339 0.1926,-0.22757 0.46537,-0.57056 0.60617,-0.7622 0.14078,-0.19163 0.36604,-0.51473 0.50055,-0.718 0.13451,-0.20328 0.39791,-0.66385 0.58535,-1.0235 0.18743,-0.35967 0.41513,-0.81307 0.50599,-1.00756 0.0909,-0.19449 0.16522,-0.38442 0.16522,-0.42207 0,-0.0376 -0.0165,-0.0784 -0.0367,-0.0906 -0.0202,-0.0122 -0.16018,-0.0415 -0.31106,-0.0652 -0.15089,-0.0237 -0.34014,-0.0718 -0.42056,-0.10678 -0.0805,-0.035 -0.19642,-0.076 -0.25776,-0.0911 -0.0613,-0.0151 -0.28217,-0.0559 -0.49074,-0.0907 -0.20857,-0.0348 -0.48461,-0.0832 -0.61342,-0.10754 -0.12882,-0.0244 -0.32958,-0.0627 -0.44614,-0.0854 -0.11654,-0.0226 -0.30225,-0.0611 -0.41266,-0.0856 -0.11042,-0.0245 -0.48182,-0.0956 -0.82534,-0.15792 -0.34351,-0.0624 -0.70489,-0.13335 -0.80303,-0.15772 -0.0981,-0.0243 -0.27381,-0.0622 -0.39037,-0.084 -0.11654,-0.0219 -0.30726,-0.0569 -0.42382,-0.0776 -0.11654,-0.0209 -0.34239,-0.0703 -0.50189,-0.10977 -0.15949,-0.0395 -0.37028,-0.0943 -0.46843,-0.1217 -0.0982,-0.0274 -0.27884,-0.0669 -0.40151,-0.0876 -0.12269,-0.0208 -0.31341,-0.0554 -0.42383,-0.0768 -0.11042,-0.0214 -0.2911,-0.0626 -0.40151,-0.0916 -0.11042,-0.0289 -0.25597,-0.072 -0.32345,-0.0956 l -0.12269,-0.043 v -1.49731 -1.4973 h 8.13819 c 4.47602,0 8.16995,-0.0119 8.20877,-0.0264 0.0635,-0.0238 0.0706,0.12484 0.0706,1.48691 0,1.3902 -0.007,1.51805 -0.0781,1.5712 -0.043,0.0319 -0.1346,0.0585 -0.20369,0.0593 -0.0691,7.5e-4 -0.16701,0.0231 -0.21761,0.0495 -0.0506,0.0264 -0.20486,0.0664 -0.34282,0.0888 -0.13796,0.0224 -0.34116,0.0585 -0.45158,0.0803 -0.11041,0.0217 -0.36686,0.0779 -0.56989,0.1247 -0.20302,0.0469 -0.40378,0.0987 -0.44612,0.11536 -0.0423,0.0165 -0.18741,0.0486 -0.32237,0.0713 -0.13496,0.0226 -0.33581,0.0559 -0.44633,0.0738 -0.11052,0.0179 -0.22283,0.0459 -0.24957,0.062 -0.0267,0.0161 -0.22741,0.0709 -0.44593,0.1216 -0.21853,0.0508 -0.49769,0.11139 -0.62038,0.13475 -0.12268,0.0234 -0.33219,0.0561 -0.46556,0.0726 l -0.24249,0.0302 -0.0833,0.30487 c -0.0458,0.16768 -0.095,0.36368 -0.10937,0.43554 -0.0143,0.0719 -0.0535,0.16932 -0.0869,0.21656 -0.0335,0.0473 -0.0608,0.12896 -0.0608,0.18158 0,0.0526 -0.0329,0.16094 -0.0733,0.24074 -0.0403,0.0798 -0.11055,0.21756 -0.15614,0.30615 -0.0456,0.0886 -0.0829,0.19174 -0.0829,0.22924 0,0.0375 -0.0177,0.10222 -0.0394,0.14381 -0.0216,0.0417 -0.0643,0.13442 -0.0947,0.20629 -0.0303,0.0719 -0.0865,0.18945 -0.1246,0.26132 -0.0382,0.0719 -0.0843,0.16006 -0.10254,0.19599 -0.0183,0.0359 -0.10439,0.21567 -0.19147,0.39943 -0.087,0.18376 -0.17892,0.3466 -0.20424,0.36189 -0.0253,0.0152 -0.046,0.0573 -0.046,0.0934 0,0.0361 -0.0502,0.12991 -0.11153,0.20842 -0.0613,0.0785 -0.11154,0.16484 -0.11154,0.19181 0,0.027 0.0641,0.14274 0.14234,0.25722 0.0783,0.11448 0.19874,0.28974 0.26767,0.38948 0.0689,0.0997 0.12535,0.20263 0.12535,0.22865 0,0.026 0.0201,0.0473 0.0446,0.0473 0.0246,0 0.0446,0.0198 0.0446,0.044 0,0.0242 0.0702,0.14159 0.15614,0.26087 0.0859,0.11928 0.15615,0.22735 0.15615,0.24015 0,0.0128 0.0701,0.1257 0.156,0.25088 0.0858,0.12518 0.17613,0.25127 0.20075,0.28021 0.0246,0.0289 0.0448,0.0722 0.0448,0.096 0,0.0239 0.0822,0.15703 0.18262,0.29583 0.10047,0.1388 0.20031,0.29646 0.22195,0.35037 0.0216,0.0539 0.0599,0.098 0.085,0.098 0.0251,0 0.0458,0.0306 0.0458,0.0679 0,0.0373 0.0576,0.14023 0.12816,0.22865 0.0705,0.0884 0.16583,0.22937 0.21191,0.31321 0.0461,0.0838 0.096,0.16224 0.11098,0.17421 0.015,0.012 0.0607,0.0855 0.10156,0.16333 0.0409,0.0779 0.0938,0.14155 0.11775,0.14155 0.0239,0 0.0435,0.0368 0.0435,0.0818 0,0.045 0.0273,0.10396 0.0608,0.131 0.0334,0.0271 0.0547,0.10254 0.0474,0.16774 -0.008,0.0652 -0.0347,0.12548 -0.0608,0.13396 -0.0261,0.009 -0.0474,0.0378 -0.0474,0.0651 0,0.0274 -0.93849,0.96648 -2.08551,2.08694 l -2.0855,2.03719 h -0.23795 c -0.19946,0 -0.27889,-0.0262 -0.49089,-0.16182 -0.13912,-0.0889 -0.26298,-0.17233 -0.27524,-0.18517 -0.0123,-0.0128 -0.0824,-0.0527 -0.15595,-0.0886 -0.0735,-0.0359 -0.257,-0.14855 -0.40774,-0.25036 -0.15075,-0.10178 -0.28571,-0.1851 -0.29993,-0.1851 -0.0142,0 -0.14191,-0.0758 -0.28376,-0.1685 -0.14186,-0.0926 -0.43254,-0.27886 -0.64595,-0.41375 -0.21341,-0.1349 -0.40159,-0.24527 -0.41816,-0.24527 -0.0165,0 -0.15673,-0.0882 -0.31147,-0.19599 -0.15474,-0.10776 -0.29376,-0.19599 -0.30894,-0.19599 -0.0152,0 -0.14209,-0.0707 -0.28199,-0.15711 -0.13991,-0.0864 -0.31055,-0.20856 -0.37917,-0.27144 -0.0949,-0.087 -0.13336,-0.1008 -0.1606,-0.0579 -0.0197,0.0311 -0.0913,0.0846 -0.15913,0.119 -0.0679,0.0344 -0.15115,0.0625 -0.18516,0.0625 -0.034,0 -0.0618,0.0163 -0.0618,0.0361 0,0.0199 -0.1556,0.11001 -0.34576,0.20029 -0.19016,0.0902 -0.3859,0.18526 -0.43498,0.21111 -0.049,0.0259 -0.13941,0.0711 -0.20075,0.10058 -0.0613,0.0295 -0.16172,0.0726 -0.22307,0.0958 -0.0613,0.0233 -0.29221,0.11502 -0.51304,0.20395 -0.22083,0.089 -0.43638,0.17954 -0.47898,0.20133 -0.0426,0.0217 -0.1263,0.0396 -0.18599,0.0396 -0.0597,0 -0.16536,0.0279 -0.23482,0.0621 -0.0695,0.0341 -0.21665,0.0865 -0.32706,0.11645 -0.11042,0.0299 -0.21983,0.0706 -0.24314,0.0904 -0.0233,0.0198 -0.10613,0.036 -0.18414,0.036 -0.078,0 -0.16191,0.0245 -0.18655,0.0545 -0.0246,0.0299 -0.0562,0.12304 -0.0702,0.20688 -0.014,0.0838 -0.0376,0.22104 -0.0525,0.30487 -0.0149,0.0838 -0.0671,0.32883 -0.11593,0.54442 -0.0488,0.21559 -0.11021,0.45078 -0.13633,0.52264 -0.0261,0.0719 -0.0635,0.21886 -0.0831,0.32665 -0.0196,0.10776 -0.0553,0.31359 -0.0795,0.45731 -0.0241,0.14373 -0.0645,0.31032 -0.0897,0.3702 -0.0252,0.0599 -0.0693,0.23628 -0.098,0.39199 -0.0287,0.1557 -0.0682,0.30269 -0.0878,0.32665 -0.0196,0.0239 -0.0465,0.13176 -0.0598,0.23955 -0.0133,0.10776 -0.0435,0.30617 -0.0671,0.44085 -0.0236,0.13467 -0.065,0.28527 -0.0922,0.33467 -0.0271,0.0494 -0.0499,0.1352 -0.0507,0.19068 -7.8e-4,0.0554 -0.0392,0.14495 -0.0853,0.19885 l -0.0837,0.098 -3.13805,-0.002 c -2.68346,-0.001 -3.14632,-0.0109 -3.19508,-0.0648 z m 15.63113,-30.33962 c 0.0468,-0.0511 0.31673,-0.30098 0.6,-0.55531 0.28325,-0.25434 0.66412,-0.58983 0.84635,-0.74554 0.18224,-0.1557 0.54548,-0.47197 0.80722,-0.70282 0.26173,-0.23085 0.53835,-0.46484 0.61471,-0.51995 0.0981,-0.0708 0.13885,-0.13613 0.13885,-0.22268 0,-0.0673 -0.017,-0.12247 -0.0376,-0.12247 -0.0207,0 -0.13426,-0.11759 -0.25234,-0.26131 -0.14963,-0.18213 -0.24562,-0.26133 -0.31673,-0.26133 -0.0561,0 -0.12827,0.0345 -0.16033,0.0766 -0.0321,0.0421 -0.39353,0.3753 -0.80326,0.7404 -0.40973,0.3651 -0.75574,0.66383 -0.7689,0.66383 -0.0132,0 -0.0199,-0.1519 -0.0149,-0.33755 0.005,-0.18564 -0.017,-0.64132 -0.0487,-1.01261 -0.0317,-0.3713 -0.0653,-0.75347 -0.0747,-0.84929 -0.01,-0.0958 -0.0309,-0.4731 -0.048,-0.83841 -0.0258,-0.5535 -0.0423,-0.66419 -0.0991,-0.66419 -0.0375,0 -0.22016,0.14242 -0.40595,0.31649 -0.18579,0.17408 -0.49759,0.45336 -0.69289,0.62063 -0.1953,0.16729 -0.56782,0.49034 -0.8278,0.71791 -0.25999,0.22757 -0.60209,0.52492 -0.76022,0.66078 -0.15814,0.13587 -0.34274,0.28918 -0.41021,0.3407 -0.0675,0.0516 -0.12269,0.12304 -0.12269,0.15894 0,0.0359 0.12455,0.20105 0.27677,0.36703 0.18436,0.20103 0.30973,0.3018 0.37549,0.3018 0.0543,0 0.13553,-0.0466 0.18052,-0.10363 0.045,-0.057 0.38632,-0.37072 0.75854,-0.69721 0.37221,-0.32648 0.68565,-0.61796 0.69653,-0.6477 0.0109,-0.0298 0.0323,-0.0428 0.0476,-0.0292 0.0153,0.0137 0.0393,0.29787 0.0533,0.63153 0.0139,0.33365 0.0357,0.63604 0.0482,0.67198 0.0125,0.0359 0.0448,0.43771 0.0717,0.89284 0.0269,0.45514 0.0506,0.95492 0.0527,1.11062 0.002,0.1557 0.0201,0.30759 0.04,0.33754 0.0198,0.0299 0.0619,0.0545 0.0934,0.0545 0.0315,0 0.0956,-0.0417 0.14236,-0.0929 z M 293.4441,253.2252 c 0.23543,-0.21881 0.292,-0.29562 0.26924,-0.36564 -0.0159,-0.0487 -0.12958,-0.18062 -0.25271,-0.29307 -0.12315,-0.11246 -0.39714,-0.37989 -0.60886,-0.59431 l -0.38497,-0.38986 0.0902,-0.0881 0.0903,-0.0881 0.35285,0.11027 c 0.19408,0.0607 0.48336,0.14773 0.64284,0.19351 0.1595,0.0458 0.41045,0.11694 0.55767,0.15814 0.14722,0.0412 0.31194,0.0954 0.36603,0.1204 0.0745,0.0345 0.12326,0.0294 0.20076,-0.0209 0.0563,-0.0365 0.19881,-0.1497 0.31665,-0.25156 0.14649,-0.12661 0.20999,-0.21326 0.20075,-0.27395 -0.0109,-0.0707 -0.0773,-0.10428 -0.32577,-0.16464 -0.17176,-0.0418 -0.48294,-0.12834 -0.6915,-0.19248 -0.20856,-0.0642 -0.51559,-0.1499 -0.68225,-0.19055 l -0.30305,-0.0739 0.38111,-0.3194 c 0.20962,-0.17568 0.38096,-0.34157 0.38075,-0.36864 -2.7e-4,-0.0271 -0.31128,-0.36283 -0.69127,-0.74611 -0.37999,-0.38327 -0.75624,-0.78013 -0.8361,-0.88191 -0.0799,-0.10178 -0.19065,-0.19706 -0.24616,-0.21174 -0.0837,-0.0221 -0.18253,0.051 -0.57997,0.42897 -0.26347,0.2506 -0.74002,0.69784 -1.059,0.99387 -0.31899,0.29603 -0.58641,0.57352 -0.59428,0.61666 -0.01,0.0515 0.15982,0.25353 0.4942,0.58979 0.27968,0.28126 0.75789,0.76622 1.06271,1.0777 0.3048,0.31147 0.75316,0.77695 0.99634,1.0344 0.24317,0.25743 0.46764,0.46806 0.49882,0.46806 0.0312,0 0.1908,-0.12465 0.35473,-0.277 z m -1.88472,-2.57409 -0.36596,-0.36453 0.10276,-0.0657 c 0.0565,-0.0361 0.27967,-0.23385 0.49594,-0.43935 0.21627,-0.20551 0.39554,-0.36869 0.39837,-0.36261 0.003,0.007 0.16464,0.17371 0.35955,0.37253 l 0.35439,0.36153 -0.15001,0.1146 c -0.0825,0.0631 -0.29931,0.25804 -0.48182,0.43333 -0.18251,0.17531 -0.33528,0.31784 -0.33951,0.31673 -0.004,-0.001 -0.17238,-0.16605 -0.37366,-0.36654 z m 12.1358,-2.85716 c 0.009,-0.0109 0.10722,-0.18643 0.21837,-0.39102 0.11121,-0.20459 0.31813,-0.56718 0.45981,-0.80574 0.14169,-0.23856 0.37356,-0.65141 0.51528,-0.91744 0.14171,-0.26604 0.27423,-0.47182 0.2945,-0.45731 0.0202,0.0145 0.074,0.10483 0.11949,0.20059 0.0455,0.0958 0.23378,0.41921 0.41849,0.71864 0.1847,0.29943 0.37979,0.60321 0.43354,0.67508 0.0537,0.0719 0.11174,0.15388 0.12886,0.18226 0.0236,0.0391 -0.18568,0.0497 -0.86897,0.0436 l -0.90012,-0.008 -0.1925,0.30488 c -0.10591,0.16768 -0.19307,0.34407 -0.19374,0.39198 -0.001,0.0857 0.0265,0.087 1.77213,0.0823 1.56787,-0.004 1.77494,-0.0126 1.78708,-0.0726 0.008,-0.0373 -0.0546,-0.1626 -0.13799,-0.27835 -0.0834,-0.11575 -0.26899,-0.40645 -0.41233,-0.646 -0.14334,-0.23955 -0.37736,-0.62731 -0.52004,-0.86172 -0.1427,-0.2344 -0.25944,-0.43623 -0.25944,-0.44851 0,-0.0123 -0.0703,-0.12957 -0.15615,-0.26063 -0.0859,-0.13106 -0.15614,-0.24608 -0.15614,-0.2556 0,-0.01 -0.12832,-0.22961 -0.28515,-0.48913 -0.15683,-0.2595 -0.33148,-0.56493 -0.3881,-0.6787 -0.078,-0.15665 -0.12758,-0.20689 -0.20435,-0.20689 -0.0787,0 -0.1302,0.0559 -0.23034,0.25044 -0.0709,0.13774 -0.47524,0.8286 -0.8985,1.53526 -0.42324,0.70665 -0.82037,1.37302 -0.88249,1.48082 -0.0621,0.10776 -0.20041,0.32889 -0.3073,0.49133 -0.10689,0.16244 -0.19434,0.33384 -0.19434,0.3809 0,0.0809 0.0282,0.0848 0.51213,0.0721 0.28168,-0.008 0.51942,-0.022 0.52831,-0.0325 z"
           id="path13964-7"
           inkscape:label="path13964"
           sodipodi:nodetypes="ssssssssssssssssssscssssssssssscssssssssssssscsssssssssssssssssscsssssscsssscssssssssssssssscssssssssssssssscssssssssssssssssssssssssssssssssssssssscsssssssssssssssssssssssssssssscssssssssssssssssssssssscssssssssssssssscssssssssssssssssssssssssssssssssssssssssssssssssssssssssssssssssssssssssssssssssssssssssssssssssssssssssssssssssssssssssssssssssssssssssssssssssssssssssssssssssscccsssscssssssssssscssssssssssssssssssssssssssssssssssssssssscssssssssssssssssssssssssssssssssssssssssscscssssssssssssssssssssssssssssssssssssssssssscccsssssssssscscsssssssssssscsscscsscssssssssssscscssssssssssssssssss" />
        <path
           style="display:inline;fill:#ffffff;fill-opacity:1;stroke-width:0.0440799;enable-background:new"
           d="m 304.01543,275.62195 c -0.14722,-0.0207 -0.41826,-0.0571 -0.60228,-0.081 -0.18402,-0.0239 -0.44501,-0.0618 -0.57996,-0.0842 -0.13496,-0.0224 -0.47804,-0.0995 -0.7624,-0.17118 -0.28438,-0.0718 -0.66778,-0.17987 -0.85202,-0.24024 -0.18422,-0.0603 -0.51368,-0.18166 -0.73211,-0.26951 -0.21845,-0.0879 -0.63807,-0.27666 -0.93251,-0.41958 -0.29445,-0.14293 -0.60563,-0.30116 -0.69151,-0.35165 -0.0859,-0.0505 -0.29667,-0.17924 -0.46843,-0.28614 -0.17176,-0.10689 -0.54316,-0.36265 -0.82534,-0.56836 -0.28217,-0.2057 -0.80973,-0.65722 -1.17234,-1.00337 -0.3626,-0.34615 -0.83268,-0.84626 -1.04461,-1.11136 -0.21194,-0.2651 -0.53555,-0.70599 -0.71914,-0.97976 -0.1836,-0.27377 -0.46646,-0.75395 -0.62859,-1.06707 -0.16213,-0.31311 -0.32853,-0.64768 -0.36978,-0.7435 -0.0412,-0.0958 -0.13835,-0.33101 -0.21579,-0.52264 -0.0774,-0.19164 -0.21048,-0.58361 -0.29565,-0.87108 -0.0851,-0.28745 -0.17513,-0.61082 -0.1999,-0.71863 -0.0248,-0.10776 -0.0618,-0.29398 -0.0823,-0.41375 -0.0204,-0.11978 -0.0792,-0.48235 -0.13047,-0.80574 -0.0725,-0.4577 -0.0932,-0.79062 -0.093,-1.5026 1.3e-4,-0.55654 0.0263,-1.11071 0.0668,-1.41549 0.0366,-0.27546 0.0867,-0.59395 0.11117,-0.70773 0.0246,-0.11379 0.0655,-0.30978 0.0909,-0.43554 0.0254,-0.12576 0.0777,-0.34625 0.11606,-0.48997 0.0384,-0.14373 0.12724,-0.44294 0.19754,-0.66492 0.0704,-0.22197 0.21066,-0.60414 0.3119,-0.84927 0.10123,-0.24513 0.32168,-0.71028 0.48988,-1.03368 0.16821,-0.32339 0.46398,-0.82318 0.65728,-1.11063 0.19331,-0.28745 0.47892,-0.67943 0.6347,-0.87106 0.15579,-0.19164 0.41525,-0.49379 0.57661,-0.67143 0.16134,-0.17765 0.5333,-0.53656 0.82655,-0.7976 0.29326,-0.26103 0.67789,-0.58092 0.85475,-0.71086 0.17684,-0.12994 0.54921,-0.38445 0.82749,-0.56558 0.27827,-0.18113 0.80709,-0.47313 1.17515,-0.64889 0.36806,-0.17574 0.9101,-0.40866 1.20454,-0.51759 0.29445,-0.10892 0.68593,-0.23993 0.86996,-0.29114 0.18401,-0.0512 0.40485,-0.1106 0.49073,-0.13197 0.0859,-0.0214 0.28664,-0.0673 0.44613,-0.102 0.15948,-0.0347 0.42048,-0.0833 0.57997,-0.10798 0.15948,-0.0247 0.4359,-0.0656 0.61425,-0.0909 0.17834,-0.0253 0.81538,-0.046 1.41563,-0.046 0.60025,0 1.23728,0.0208 1.41563,0.046 0.17835,0.0253 0.45476,0.0662 0.61425,0.0909 0.1595,0.0247 0.42048,0.0737 0.57997,0.10902 0.15949,0.0352 0.41044,0.0938 0.55766,0.1303 0.14722,0.0364 0.3279,0.0817 0.40151,0.10069 0.0736,0.0189 0.28441,0.0872 0.46844,0.15166 0.18403,0.0645 0.42494,0.14736 0.53535,0.18424 0.11042,0.0369 0.50285,0.20887 0.87207,0.38218 0.36922,0.17331 0.90123,0.45741 1.18224,0.63134 0.28101,0.17392 0.74075,0.48582 1.02163,0.69309 0.28089,0.20727 0.75912,0.61085 1.06273,0.89683 0.30362,0.28598 0.67767,0.66817 0.83123,0.84929 0.15356,0.18113 0.38435,0.46274 0.51287,0.62582 0.12851,0.16307 0.36604,0.49565 0.52783,0.73904 0.16178,0.2434 0.41702,0.67835 0.5672,0.96655 0.15017,0.28821 0.35093,0.69561 0.44612,0.90536 0.0951,0.20974 0.1636,0.39062 0.15199,0.40195 -0.0116,0.0113 -4.06258,0.0219 -9.00216,0.0234 -4.93959,0.001 -8.99066,-0.007 -9.00237,-0.0179 -0.0118,-0.0114 0.0309,-0.0876 0.0947,-0.16931 0.0638,-0.0817 0.11605,-0.16216 0.11605,-0.17884 0,-0.0166 0.0451,-0.0932 0.10036,-0.1701 0.0552,-0.0769 0.11042,-0.14958 0.12268,-0.16157 0.0123,-0.012 0.0463,-0.061 0.0758,-0.10888 0.0294,-0.0479 0.0969,-0.1655 0.14986,-0.26132 0.0531,-0.0958 0.22469,-0.31434 0.38152,-0.4856 0.15682,-0.17127 0.28512,-0.33071 0.28512,-0.35432 0,-0.0236 0.13105,-0.16262 0.29122,-0.30889 l 0.29123,-0.26596 5.22962,-0.0188 c 2.87628,-0.0109 5.34002,-0.0191 5.47498,-0.0196 0.13495,-3.7e-4 0.35076,-0.0131 0.47958,-0.0282 0.15216,-0.0178 0.23422,-0.048 0.23422,-0.0859 0,-0.0322 -0.12459,-0.16006 -0.27686,-0.28427 -0.15226,-0.12422 -0.32793,-0.27508 -0.39036,-0.33526 -0.0624,-0.0601 -0.33227,-0.26402 -0.59966,-0.453 -0.26738,-0.18898 -0.50184,-0.34359 -0.52101,-0.34359 -0.0191,0 -0.0623,-0.0245 -0.0959,-0.0545 -0.0335,-0.0299 -0.13033,-0.0907 -0.2151,-0.13505 -0.0847,-0.0444 -0.27456,-0.13971 -0.42178,-0.21196 -0.14722,-0.0722 -0.3279,-0.15577 -0.40151,-0.18563 -0.0736,-0.0299 -0.24426,-0.0985 -0.37922,-0.15255 -0.13494,-0.054 -0.29865,-0.12532 -0.36378,-0.1584 -0.0651,-0.0331 -0.16934,-0.0601 -0.23158,-0.0601 -0.0622,0 -0.12559,-0.0196 -0.14074,-0.0435 -0.0151,-0.0239 -0.067,-0.0436 -0.1151,-0.0436 -0.0482,0 -0.23267,-0.0381 -0.41005,-0.0845 -0.17737,-0.0464 -0.4831,-0.11948 -0.6794,-0.16225 -0.30281,-0.066 -0.57663,-0.0776 -1.80682,-0.0772 -1.20709,5e-4 -1.49101,0.0124 -1.69528,0.0713 -0.13496,0.0389 -0.3558,0.0846 -0.49074,0.10156 -0.13496,0.0169 -0.29959,0.0579 -0.36584,0.0909 -0.0662,0.0332 -0.18051,0.0602 -0.2539,0.0602 -0.0734,0 -0.14583,0.0196 -0.16099,0.0436 -0.0151,0.0239 -0.0942,0.0435 -0.17562,0.0435 -0.0815,0 -0.17304,0.0294 -0.20359,0.0653 -0.0306,0.0359 -0.0913,0.0653 -0.13509,0.0653 -0.0437,0 -0.16676,0.0414 -0.27336,0.092 -0.10656,0.0507 -0.25404,0.11632 -0.32766,0.14598 -0.0736,0.0297 -0.22419,0.0984 -0.3346,0.15281 -0.11041,0.0544 -0.28106,0.14224 -0.3792,0.19522 -0.0982,0.0529 -0.24047,0.13387 -0.31625,0.17978 -0.0758,0.0459 -0.22636,0.14029 -0.3346,0.20974 -0.1082,0.0695 -0.20349,0.14295 -0.21167,0.16333 -0.009,0.0203 -0.0403,0.0371 -0.0716,0.0371 -0.0312,0 -0.10978,0.0481 -0.17468,0.10678 -0.0649,0.0587 -0.20444,0.16482 -0.31011,0.2358 -0.1057,0.071 -0.36958,0.30223 -0.58648,0.51389 -0.21691,0.21166 -0.57742,0.60042 -0.80114,0.86391 -0.22371,0.2635 -0.46171,0.55129 -0.52888,0.63952 -0.0672,0.0882 -0.12213,0.17829 -0.12213,0.20012 0,0.0219 -0.0401,0.0751 -0.0893,0.11854 -0.049,0.0434 -0.0892,0.0924 -0.0892,0.10912 0,0.0166 -0.0752,0.15158 -0.1673,0.29983 -0.092,0.14827 -0.20096,0.3227 -0.24211,0.38763 -0.0411,0.0649 -0.0763,0.16276 -0.0781,0.21741 -0.002,0.0547 -0.0334,0.11064 -0.0701,0.12443 -0.0369,0.0138 -0.0669,0.0573 -0.0668,0.0967 10e-5,0.0394 -0.0427,0.15976 -0.0951,0.26755 -0.0524,0.10776 -0.12273,0.25148 -0.15627,0.31929 -0.0335,0.0679 -0.061,0.16956 -0.061,0.22609 0,0.0565 -0.0201,0.11489 -0.0446,0.1297 -0.0246,0.0148 -0.0446,0.0724 -0.0446,0.12791 0,0.0556 -0.0319,0.17552 -0.0709,0.26661 -0.0389,0.0911 -0.0881,0.25516 -0.10905,0.36463 -0.021,0.10946 -0.0585,0.28722 -0.0833,0.39502 -0.0248,0.10776 -0.0683,0.39198 -0.0967,0.63152 -0.0332,0.27996 -0.0426,0.80891 -0.0264,1.48082 0.0138,0.57491 0.0426,1.19227 0.0641,1.37193 0.0213,0.17966 0.0601,0.36585 0.0862,0.41376 0.0261,0.0479 0.0621,0.1949 0.08,0.32666 0.0179,0.13174 0.0605,0.29246 0.0944,0.35715 0.0339,0.0647 0.0617,0.16641 0.0617,0.22608 0,0.0597 0.0201,0.12059 0.0446,0.13539 0.0246,0.0148 0.0446,0.071 0.0446,0.12491 0,0.0539 0.0295,0.13603 0.0655,0.18254 0.036,0.0465 0.0661,0.11226 0.0669,0.14614 7.6e-4,0.0339 0.0717,0.20612 0.15756,0.38275 0.0859,0.17664 0.15615,0.3498 0.15615,0.38482 0,0.035 0.0201,0.0637 0.0446,0.0637 0.0246,0 0.0446,0.022 0.0446,0.0489 0,0.0269 0.0904,0.1942 0.20075,0.37175 0.11043,0.17756 0.20077,0.33886 0.20077,0.35847 0,0.0196 0.0501,0.0885 0.11153,0.15314 0.0613,0.0646 0.1124,0.13117 0.11346,0.14791 0.001,0.0167 0.0865,0.14024 0.18961,0.27448 0.10319,0.13422 0.32148,0.39959 0.48505,0.5897 0.16355,0.1901 0.47723,0.50165 0.69706,0.69234 0.21982,0.19068 0.49809,0.42907 0.61836,0.52976 0.12028,0.1007 0.36643,0.28688 0.547,0.41375 0.18056,0.12689 0.36022,0.2503 0.39925,0.27425 0.039,0.0239 0.17721,0.10722 0.3071,0.18511 0.1299,0.0779 0.25586,0.14155 0.27991,0.14155 0.024,0 0.0437,0.0196 0.0437,0.0436 0,0.0239 0.0377,0.0436 0.0837,0.0436 0.0461,0 0.10875,0.0294 0.13929,0.0654 0.0306,0.0359 0.0782,0.0652 0.1058,0.0652 0.0276,-1e-4 0.14065,0.0426 0.25106,0.0949 0.11042,0.0523 0.26098,0.11886 0.3346,0.14797 0.0736,0.0291 0.18403,0.0724 0.24537,0.0962 0.0613,0.0238 0.30225,0.10668 0.53535,0.18421 0.23311,0.0775 0.51416,0.15017 0.62458,0.1615 0.11042,0.0113 0.21983,0.0383 0.24314,0.0599 0.0233,0.0216 0.12369,0.0397 0.22306,0.0402 0.0994,5e-4 0.34129,0.0291 0.53759,0.0638 0.24147,0.0426 0.68154,0.0631 1.36069,0.0634 0.55209,2.6e-4 1.09413,-0.0201 1.20454,-0.0453 0.11043,-0.0251 0.33125,-0.0634 0.49075,-0.085 0.15949,-0.0216 0.4004,-0.0566 0.53536,-0.0779 0.13494,-0.0212 0.44612,-0.10189 0.69149,-0.17913 0.24537,-0.0773 0.49631,-0.16043 0.55765,-0.18478 0.0613,-0.0244 0.17177,-0.0678 0.24538,-0.0967 0.0736,-0.0288 0.27975,-0.12478 0.45808,-0.21318 0.17833,-0.0884 0.35399,-0.16075 0.39036,-0.16075 0.0363,0 0.0661,-0.0196 0.0661,-0.0436 0,-0.0239 0.0286,-0.0436 0.0635,-0.0436 0.0349,0 0.12314,-0.049 0.19604,-0.10888 0.0729,-0.0599 0.14728,-0.10889 0.16526,-0.10889 0.0179,0 0.24813,-0.14767 0.51144,-0.32816 0.2633,-0.1805 0.52523,-0.37649 0.58206,-0.43553 0.0569,-0.0591 0.12088,-0.10733 0.14235,-0.10733 0.0214,0 0.32412,-0.2798 0.67256,-0.62177 0.34846,-0.34197 0.69537,-0.69965 0.77092,-0.79485 0.0756,-0.0952 0.27414,-0.35927 0.4413,-0.58684 0.16717,-0.22757 0.30611,-0.41658 0.30877,-0.42002 0.002,-0.003 0.1353,0.0208 0.2948,0.0539 0.15949,0.0331 0.4004,0.0794 0.53535,0.10276 0.13495,0.0234 0.53648,0.10178 0.89226,0.17418 0.35578,0.0724 0.70711,0.13218 0.78072,0.13285 0.0736,6.2e-4 0.16177,0.0185 0.19593,0.0396 0.0515,0.0319 0.0471,0.0596 -0.0258,0.16266 -0.0483,0.0684 -0.16528,0.26147 -0.25988,0.42915 -0.0946,0.16768 -0.29567,0.49107 -0.44685,0.71863 -0.15117,0.22757 -0.44713,0.62935 -0.6577,0.89284 -0.21055,0.26351 -0.70051,0.784 -1.0888,1.15667 -0.39075,0.37503 -0.93504,0.84342 -1.21901,1.04901 -0.28218,0.2043 -0.73268,0.50506 -1.00109,0.66835 -0.26842,0.16331 -0.73017,0.40822 -1.0261,0.54425 -0.29592,0.13604 -0.61216,0.2804 -0.70272,0.32082 -0.0906,0.0405 -0.3616,0.14235 -0.60228,0.22651 -0.24068,0.0842 -0.62831,0.20382 -0.86141,0.26593 -0.23311,0.0621 -0.50414,0.13143 -0.60229,0.15406 -0.0982,0.0226 -0.28886,0.0593 -0.42382,0.0815 -0.13494,0.0222 -0.38589,0.059 -0.55765,0.0821 -0.17177,0.0229 -0.45282,0.0617 -0.62459,0.0859 -0.17175,0.0242 -0.70376,0.0422 -1.18223,0.0399 -0.47847,-0.002 -0.9904,-0.0212 -1.13762,-0.0419 z"
           id="path13964-7-3"
           inkscape:label="path13964-7"
           sodipodi:nodetypes="sssssssssssssssssssscssssssssssssssssssssssssssssssssssssssssssssssssscssssssssssssssssssscsssssssssssssssssssssssssssscsssssssssssssssssscssssssscssssssssssscsssssscsssssssssssssssssssssssscssssssssssssssssss" />
      </g>
    </g>
  </g>
  <g
     inkscape:groupmode="layer"
     id="layer3"
     inkscape:label="sheet_layout"
     style="display:none">
    <g
       style="opacity:1"
       id="g3323">
      <rect
         y="0"
         x="768"
         height="256"
         width="256"
         id="rect6450"
         style="display:inline;vector-effect:none;fill:#1a1a1a;fill-opacity:1;stroke:none;stroke-width:7.5590601;stroke-linecap:round;stroke-linejoin:round;stroke-miterlimit:4;stroke-dasharray:none;stroke-dashoffset:105.70800018;stroke-opacity:1;marker:none;paint-order:fill markers stroke;enable-background:new" />
      <rect
         style="display:inline;vector-effect:none;fill:#1a1a1a;fill-opacity:1;stroke:none;stroke-width:7.5590601;stroke-linecap:round;stroke-linejoin:round;stroke-miterlimit:4;stroke-dasharray:none;stroke-dashoffset:105.70800018;stroke-opacity:1;marker:none;paint-order:fill markers stroke;enable-background:new"
         id="rect6442"
         width="256"
         height="256"
         x="512"
         y="0" />
      <rect
         style="display:inline;vector-effect:none;fill:#1a1a1a;fill-opacity:1;stroke:none;stroke-width:7.5590601;stroke-linecap:round;stroke-linejoin:round;stroke-miterlimit:4;stroke-dasharray:none;stroke-dashoffset:105.70800018;stroke-opacity:1;marker:none;paint-order:fill markers stroke;enable-background:new"
         id="rect6134"
         width="256"
         height="256"
         x="0"
         y="0" />
      <rect
         y="0"
         x="256"
         height="256"
         width="256"
         id="rect6161"
         style="display:inline;vector-effect:none;fill:#1a1a1a;fill-opacity:1;stroke:none;stroke-width:7.5590601;stroke-linecap:round;stroke-linejoin:round;stroke-miterlimit:4;stroke-dasharray:none;stroke-dashoffset:105.70800018;stroke-opacity:1;marker:none;paint-order:fill markers stroke;enable-background:new" />
    </g>
  </g>
</svg>
